<svg width="58" height="58" viewBox="0 0 58 58" fill="none" xmlns="http://www.w3.org/2000/svg">
<rect x="0.75" y="0.75" width="56.5" height="56.5" stroke="#696969" stroke-width="1.5"/>
<path d="M22.0192 27.0278L23.1624 26.0567L22.0192 24.7109L20.876 26.0567L22.0192 27.0278ZM29.2449 35.5342L28.1017 36.5053L29.217 37.8183L30.3641 36.5329L29.2449 35.5342ZM45.4976 18.9148C45.4506 18.0878 44.7419 17.4554 43.9148 17.5024L30.4366 18.2688C29.6095 18.3158 28.9772 19.0244 29.0242 19.8515C29.0712 20.6786 29.7798 21.311 30.6069 21.264L42.5876 20.5827L43.2688 32.5634C43.3158 33.3905 44.0244 34.0228 44.8515 33.9758C45.6786 33.9288 46.311 33.2202 46.264 32.3931L45.4976 18.9148ZM12.1432 40.9711L23.1624 27.999L20.876 26.0567L9.85678 39.0289L12.1432 40.9711ZM20.876 27.999L28.1017 36.5053L30.3882 34.5631L23.1624 26.0567L20.876 27.999ZM30.3641 36.5329L45.1192 19.9987L42.8808 18.0013L28.1258 34.5354L30.3641 36.5329Z" fill="#696969"/>
</svg>
